<svg
  xmlns="http://www.w3.org/2000/svg"
  xmlns:xlink="http://www.w3.org/1999/xlink"
  fill="none"
  version="1.1"
  width="187.49302673339844"
  height="27.8005428314209"
  viewBox="0 0 187.49302673339844 27.8005428314209"
><g style="mix-blend-mode:passthrough"><path
      d="M34.212,2.5814L34.3469,5.98718L34.3568,6.23769L41.2655,5.94458L38.79,6.07765L37.567,7.70045L38.2779,10.8661L39.5007,11.8685L39.5262,11.8894L35.5488,12.0225L34.128,13.5126L34.128,17.6127L37.253,17.6127L37.253,15.0729L38.5296,15.0284L38.4058,17.215L40.1861,17.2996L33.8779,18.8027L34.6105,21.8202L36.0863,21.4664L36.6795,23.839L35.0309,24.2426L35.8016,27.226L45.5525,24.8692L44.8522,26.2348L48.0201,27.8005L50.1071,23.6934L50.1071,23.1806L55.0114,25.7288L56.6977,22.6354L53.1851,20.7718L55.2407,19.8882L53.7957,16.646L51.5849,17.6451L51.3376,14.7478L49.5776,14.6689L54.0863,14.5171L54.0863,16.8419L57.1488,16.8419L57.1488,12.8002L55.6858,11.3488L52.8451,11.4439L53.9283,10.1849L53.5969,6.59456L52.3196,5.47558L55.9734,5.32056L55.7925,1.64339L46.4787,2.06435L45.3161,0L42.266,1.74292L42.5203,2.24333L34.212,2.5814ZM51.1053,17.8619L48.5299,18.495L48.7105,18.9442L51.1053,17.8619ZM34.8366,5.71689L55.4492,4.84235L55.3176,2.16536L46.1939,2.57773L45.1273,0.683749L42.9274,1.94083L43.319,2.71125L34.7314,3.06068L34.8366,5.71689ZM138.245,26.2932L141.339,27.1964L141.58,27.2667L144.03,18.8088L144.098,18.2533L143.809,14.6828L149.98,15.3167L147.706,18.401L145.952,16.9995L143.79,19.7561L145.62,21.241L142.949,24.9237L145.73,27.0485L148.415,23.4362L152.91,26.9527L155.084,24.1954L150.494,20.607L154.696,14.8947L153.528,12.2238L149.253,11.7533L149.253,6.19857L151.641,6.0168L150.566,8.86316L153.846,10.0901L155.974,4.51934L154.265,2.29029L149.253,2.68594L149.253,0.38354L145.743,0.38354L145.743,2.9535L141.099,3.2982L139.579,5.08116L140.594,18.1909L138.245,26.2932ZM143.75,13.9586L144.041,11.16L145.743,11.3446L145.743,6.45476L143.158,6.64557L143.75,13.9586ZM0,13.646L0.180431,16.9389L0.194048,17.1874L12.4296,16.572L13.0526,21.5468L7.43372,23.4898L8.58899,26.7732L15.6374,24.3619L16.7203,22.6065L15.9407,16.3899L26.8031,15.8182L26.6814,12.3507L15.5257,12.8933L15.4112,11.9313L22.7618,4.43439L21.6904,1.58136L4.35247,0.525081L4.13361,4.00263L17.4592,4.84822L12.2407,10.1156L11.8213,11.4646L12.0143,13.0635L0,13.646ZM173.571,25.7697L175.341,27.1139L175.424,27.1767L184.82,25.8694L186.221,24.4345L187.493,13.3657L185.912,11.5328L180.87,11.3806L180.896,8.41524L186.708,8.66476L186.891,5.19828L180.965,4.90615L181.027,0.573696L177.56,0.537201L177.331,11.2707L173.561,11.14L171.876,13.0429L173.571,25.7697ZM141.239,26.6463L138.865,25.9531L141.099,18.2429L140.094,5.24843L141.344,3.78138L146.243,3.41775L146.243,0.88354L148.753,0.88354L148.753,3.22697L154.033,2.81012L155.407,4.6019L153.556,9.44782L151.211,8.57059L152.386,5.45862L148.753,5.73518L148.753,12.2013L153.186,12.6891L154.122,14.8307L149.804,20.7018L154.38,24.28L152.825,26.2519L148.32,22.7267L145.631,26.3436L143.64,24.8225L146.303,21.1511L144.487,19.6777L146.034,17.7051L147.8,19.1161L150.901,14.9087L144.225,14.2229L144.486,11.7112L146.243,11.9017L146.243,5.91649L142.619,6.18401L143.595,18.243L143.539,18.7083L141.239,26.6463ZM63.691,13.8755L64.6598,17.0299L64.7335,17.2697L65.5941,17.002L65.7765,24.8141L67.7331,26.4732L77.4607,24.7384L78.8074,23.095L78.4291,8.79694L81.3276,10.2629L81.5513,10.376L82.6363,8.21687L88.2676,8.21687L87.8953,23.3001L80.8046,22.4384L80.3924,25.9779L89.5095,27.0403L91.3961,25.4282L91.8492,6.32259L90.1675,4.67521L84.4112,4.67521L85.6319,2.28307L82.4328,0.683548L78.4264,8.69637L78.3542,5.96879L76.5794,4.34283L73.3186,4.65513L74.7047,2.72388L71.8946,0.668024L68.7211,5.1024L66.872,5.25735L65.3447,6.97837L65.4782,13.3157L63.691,13.8755ZM101.971,23.7709L103.36,26.7193L103.465,26.9426L111.825,23.1302L112.769,21.5147L111.086,0.706553L107.577,1.01009L109.177,20.5097L101.971,23.7709ZM0.666065,16.663L0.52678,14.1211L12.575,13.5369L12.3305,11.5109L12.6819,10.3807L18.5884,4.41886L4.66401,3.53528L4.82014,1.0545L21.3363,2.06072L22.1817,4.31186L14.8864,11.7524L15.0844,13.4154L26.1995,12.8747L26.2862,15.3447L15.3777,15.9188L16.2023,22.4939L15.306,23.9468L8.89613,26.1397L8.07223,23.7981L13.5991,21.8869L12.868,16.0493L0.666065,16.663ZM175.561,26.6529L174.039,25.4974L172.401,13.2033L173.779,11.6479L177.82,11.788L178.05,1.04238L180.52,1.06838L180.458,5.38177L186.365,5.67297L186.235,8.14398L180.401,7.89351L180.365,11.8656L185.677,12.0259L186.971,13.5263L185.744,24.2076L184.582,25.3977L175.561,26.6529ZM103.707,26.2828L102.639,24.017L109.704,20.8199L108.116,1.46533L110.628,1.24803L112.258,21.3982L111.473,22.741L103.707,26.2828ZM159.665,5.23526L160.015,8.51419L160.041,8.76349L172.059,7.44868L171.683,3.94115L167.25,4.42557L166.12,1.01456L162.792,2.13192L163.669,4.79385L159.665,5.23526ZM65.0641,16.6432L64.3149,14.204L65.986,13.6806L65.8487,7.16371L67.1131,5.7389L68.9932,5.58135L72.0072,1.36989L74.0096,2.83487L72.2707,5.25779L76.4057,4.86175L77.86,6.19412L78.3027,22.9221L77.1911,24.2786L67.877,25.9397L66.2711,24.578L66.0785,16.3276L65.0641,16.6432ZM81.3296,9.70358L82.328,7.71687L88.7801,7.71687L88.3815,23.8628L81.2431,22.9954L80.9469,25.5392L89.3506,26.5184L90.9015,25.1931L91.3442,6.52782L89.9634,5.17521L83.5947,5.17521L84.9574,2.50484L82.6564,1.35437L79.0566,8.55401L81.3296,9.70358ZM160.485,8.21192L160.215,5.67766L164.337,5.22323L163.422,2.44766L165.803,1.64835L166.902,4.96651L171.239,4.4926L171.509,7.0059L160.485,8.21192ZM135.674,6.21687L139.493,6.21687L139.493,2.70646L128.743,2.70646L128.743,6.21687L131.95,6.21687L127.24,20.6479L130.556,21.729L130.8,21.0122L131.158,25.4106L132.907,26.954L136.98,26.6147L138.483,25.111L139.596,13.0084L137.763,11.1757L133.932,11.5364L135.674,6.21687ZM138.993,5.71687L135.311,5.71687L133.22,12.1057L137.576,11.6955L139.077,13.1962L138.002,24.8852L136.756,26.1316L133.078,26.4381L131.64,25.169L131.102,18.5674L130.242,21.1006L127.87,20.3275L132.639,5.71687L129.243,5.71687L129.243,3.20646L138.993,3.20646L138.993,5.71687ZM39.7467,11.4236L52.3969,11.1981L53.4109,10.0196L53.1174,6.83919L52.0085,5.86781L39.0493,6.56443L38.1056,7.81663L38.728,10.5885L39.7467,11.4236ZM96.1827,19.7596L99.1406,21.0806L99.3678,21.182L105.042,8.6342L101.836,7.17705L96.1827,19.7596ZM99.1173,20.5226L104.381,8.88288L102.086,7.84003L96.8441,19.5074L99.1173,20.5226ZM75.3705,7.53812L68.4139,8.15525L68.4197,8.38976L68.5321,12.9093L73.5634,11.3238L74.2678,13.7502L68.5719,15.556L68.7385,23.2009L75.7693,21.9675L75.3705,7.53812ZM68.9254,8.61183L69.0155,12.2328L73.9009,10.6932L74.884,14.0794L69.0799,15.9194L69.2257,22.6078L75.2575,21.5496L74.8854,8.08312L68.9254,8.61183ZM51.341,7.81999L40.1136,8.35672L40.1875,8.65251L40.3918,9.46977L51.4359,9.30672L51.341,7.81999ZM40.7465,8.82703L50.8733,8.34292L50.9034,8.81453L40.7808,8.96398L40.7465,8.82703ZM114.061,10.4921L120.153,19.0494L120.299,19.2544L123.142,17.2015L116.926,8.44034L114.061,10.4921ZM120.415,18.5543L122.447,17.0864L116.809,9.13924L114.757,10.6083L120.415,18.5543ZM159.938,23.3329L160.591,26.5787L160.64,26.8228L172.496,24.4864L171.792,21.0291L169.549,21.4578L171.233,9.5382L167.728,9.00453L166.155,20.2865L163.815,10.1769L160.379,10.9782L162.739,21.024L162.796,21.2668L166.126,20.4938L165.895,22.1521L159.938,23.3329ZM161.032,26.236L160.527,23.7258L166.341,22.5734L168.153,9.57505L170.669,9.95805L168.957,22.0801L171.401,21.613L171.906,24.0931L161.032,26.236ZM163.169,20.667L160.981,11.3514L163.441,10.7776L165.599,20.1028L163.169,20.667ZM79.5233,13.8119L84.4994,19.0147L84.6727,19.1959L87.2637,16.7019L82.0938,11.3869L79.5233,13.8119ZM36.753,17.1127L36.753,14.59L39.0597,14.5096L39.059,14.5229L54.5863,14L54.5863,16.3419L56.6488,16.3419L56.6488,13.0085L55.4868,11.8558L35.7697,12.5154L34.628,13.7128L34.628,17.1127L36.753,17.1127ZM39.0491,14.6978L50.8767,15.2276L51.0586,17.3585L47.851,18.147L48.4412,19.6146L53.5436,17.3086L54.5777,19.6289L52.0291,20.7245L56.0166,22.8401L54.807,25.0591L49.6071,22.3573L49.6071,23.5737L47.7984,27.1332L45.5287,26.0114L46.4951,24.127L36.1626,26.6244L35.6417,24.6078L46.6451,21.9144L46.3392,21.0673L37.0604,23.3012L36.6608,21.7027L45.7012,19.5159L45.3701,18.7263L34.9788,21.2177L34.4822,19.1727L43.7365,16.9675L38.9335,16.7395L39.0491,14.6978ZM84.6874,18.4878L86.5548,16.6902L82.0788,12.0885L80.2326,13.8302L84.6874,18.4878ZM184.346,14.4846L175.049,14.2405L175.089,14.5315L176.372,24.0636L183.322,23.0405L184.346,14.4846ZM136.446,14.3233L133.307,14.6384L133.327,14.8827L134.045,23.8384L135.598,23.6609L136.446,14.3233ZM175.623,14.7557L176.8,23.4952L182.871,22.6015L183.785,14.97L175.623,14.7557ZM133.845,15.087L134.502,23.2829L135.137,23.2103L135.893,14.8813L133.845,15.087Z"
      fill-rule="evenodd"
      fill="#000000"
      fill-opacity="1"
    /></g></svg>
